<svg xmlns="http://www.w3.org/2000/svg" width="960" height="600" viewBox="0 0 960 600" fill="none">
  <rect width="960" height="600" rx="8" fill="#f8fafc"/>
  <rect x="24" y="24" width="912" height="40" rx="6" fill="#e2e8f0"/>
  <rect x="40" y="36" width="12" height="12" rx="2" fill="#f87171"/>
  <rect x="58" y="36" width="12" height="12" rx="2" fill="#fbbf24"/>
  <rect x="76" y="36" width="12" height="12" rx="2" fill="#4ade80"/>
  <text x="110" y="46" fill="#64748b" font-family="system-ui,sans-serif" font-size="14">draft-crm.local / clients</text>
  <rect x="24" y="88" width="912" height="44" rx="6" fill="#e2e8f0"/>
  <text x="48" y="116" fill="#475569" font-family="system-ui,sans-serif" font-size="12" font-weight="600"><O</text>
  <text x="280" y="116" fill="#475569" font-family="system-ui,sans-serif" font-size="12" font-weight="600">Email</text>
  <text x="520" y="116" fill="#475569" font-family="system-ui,sans-serif" font-size="12" font-weight="600">"5;5D>=</text>
  <text x="760" y="116" fill="#475569" font-family="system-ui,sans-serif" font-size="12" font-weight="600">59AB28O</text>
  <g stroke="#e2e8f0">
    <rect x="24" y="140" width="912" height="48" fill="#fff"/>
    <rect x="24" y="188" width="912" height="48" fill="#f8fafc"/>
    <rect x="24" y="236" width="912" height="48" fill="#fff"/>
    <rect x="24" y="284" width="912" height="48" fill="#f8fafc"/>
    <rect x="24" y="332" width="912" height="48" fill="#fff"/>
  </g>
  <rect x="48" y="156" width="180" height="8" rx="2" fill="#cbd5e1"/>
  <rect x="280" y="156" width="200" height="8" rx="2" fill="#cbd5e1"/>
  <rect x="520" y="156" width="120" height="8" rx="2" fill="#cbd5e1"/>
  <rect x="760" y="152" width="64" height="20" rx="4" fill="#e2e8f0"/>
  <rect x="48" y="204" width="160" height="8" rx="2" fill="#cbd5e1"/>
  <rect x="280" y="204" width="220" height="8" rx="2" fill="#cbd5e1"/>
  <rect x="520" y="204" width="100" height="8" rx="2" fill="#cbd5e1"/>
  <rect x="760" y="200" width="64" height="20" rx="4" fill="#e2e8f0"/>
</svg>
