<svg xmlns="http://www.w3.org/2000/svg" width="960" height="600" viewBox="0 0 960 600" fill="none">
  <rect width="960" height="600" rx="8" fill="#f8fafc"/>
  <rect x="24" y="24" width="912" height="40" rx="6" fill="#e2e8f0"/>
  <rect x="40" y="36" width="12" height="12" rx="2" fill="#f87171"/>
  <rect x="58" y="36" width="12" height="12" rx="2" fill="#fbbf24"/>
  <rect x="76" y="36" width="12" height="12" rx="2" fill="#4ade80"/>
  <text x="110" y="46" fill="#64748b" font-family="system-ui,sans-serif" font-size="14">draft-crm.local / leads</text>
  <g opacity="0.9">
    <rect x="24" y="88" width="280" height="488" rx="8" fill="#f1f5f9" stroke="#e2e8f0"/>
    <text x="40" y="118" fill="#0f172a" font-family="system-ui,sans-serif" font-size="13" font-weight="600">+</text>
    <rect x="40" y="136" width="248" height="72" rx="6" fill="#fff" stroke="#e2e8f0"/>
    <rect x="40" y="220" width="248" height="72" rx="6" fill="#fff" stroke="#e2e8f0"/>
    <rect x="344" y="88" width="280" height="488" rx="8" fill="#f1f5f9" stroke="#e2e8f0"/>
    <text x="360" y="118" fill="#0f172a" font-family="system-ui,sans-serif" font-size="13" font-weight="600">  "</text>
    <rect x="360" y="136" width="248" height="72" rx="6" fill="#fff" stroke="#cbd5e1"/>
    <rect x="360" y="220" width="248" height="72" rx="6" fill="#fff" stroke="#e2e8f0"/>
    <rect x="664" y="88" width="272" height="488" rx="8" fill="#f1f5f9" stroke="#e2e8f0"/>
    <text x="680" y="118" fill="#0f172a" font-family="system-ui,sans-serif" font-size="13" font-weight="600">"</text>
    <rect x="680" y="136" width="240" height="72" rx="6" fill="#fff" stroke="#e2e8f0"/>
  </g>
</svg>
